<?xml version="1.0" encoding="UTF-8" standalone="no"?>
<!DOCTYPE svg PUBLIC "-//W3C//DTD SVG 1.1//EN" "http://www.w3.org/Graphics/SVG/1.1/DTD/svg11.dtd">
<svg width="100%" height="100%" viewBox="0 0 4961 3508" version="1.1" xmlns="http://www.w3.org/2000/svg" xmlns:xlink="http://www.w3.org/1999/xlink" xml:space="preserve" xmlns:serif="http://www.serif.com/" style="fill-rule:evenodd;clip-rule:evenodd;stroke-linecap:round;stroke-linejoin:round;stroke-miterlimit:1.5;">
    <g transform="matrix(1,0,0,1,-36.59,-221.484)">
        <circle cx="2598.43" cy="2119.55" r="1296.41" style="fill:white;"/>
    </g>
    <circle cx="2561.84" cy="1898.07" r="1074.93" style="fill:rgb(231,232,233);stroke:rgb(35,31,32);stroke-width:66.67px;"/>
    <g transform="matrix(0.821025,0,0,0.811233,458.507,358.292)">
        <circle cx="2561.84" cy="1898.07" r="1074.93" style="fill:rgb(231,232,233);stroke:rgb(35,31,32);stroke-width:81.68px;"/>
    </g>
    <g transform="matrix(0.579238,0,0,0.582887,1077.93,791.709)">
        <circle cx="2561.84" cy="1898.07" r="1074.93" style="fill:rgb(231,232,233);stroke:rgb(35,31,32);stroke-width:114.73px;"/>
    </g>
    <g transform="matrix(0.362151,0,0,0.368524,1634.07,1198.58)">
        <circle cx="2561.84" cy="1898.07" r="1074.93" style="fill:rgb(231,232,233);stroke:rgb(35,31,32);stroke-width:182.47px;"/>
    </g>
    <g transform="matrix(1,0,0,1,850.309,1227.22)">
        <circle cx="2304.85" cy="439.706" r="87.014" style="stroke:black;stroke-width:66.67px;"/>
    </g>
    <g transform="matrix(1,0,0,1,1269.84,1051.79)">
        <circle cx="2304.85" cy="439.706" r="87.014" style="stroke:black;stroke-width:66.67px;"/>
    </g>
    <g transform="matrix(1,0,0,1,1139.54,1401.25)">
        <circle cx="2304.85" cy="439.706" r="87.014" style="stroke:black;stroke-width:66.67px;"/>
    </g>
</svg>
