<?xml version="1.0" encoding="UTF-8" standalone="no"?>
<!DOCTYPE svg PUBLIC "-//W3C//DTD SVG 1.1//EN" "http://www.w3.org/Graphics/SVG/1.1/DTD/svg11.dtd">
<svg width="100%" height="100%" viewBox="0 0 3544 3544" version="1.1" xmlns="http://www.w3.org/2000/svg" xmlns:xlink="http://www.w3.org/1999/xlink" xml:space="preserve" xmlns:serif="http://www.serif.com/" style="fill-rule:evenodd;clip-rule:evenodd;stroke-linejoin:round;stroke-miterlimit:2;">
    <g transform="matrix(-1.04231,-1.27647e-16,1.27647e-16,-1.04231,3613.5,5098.88)">
        <path d="M1767.07,1645.75L3261.14,3387.55L272.997,3387.55L1767.07,1645.75Z" style="fill:rgb(201,51,56);"/>
    </g>
    <g transform="matrix(1.06716,0,0,1.04231,-151.198,58.9103)">
        <rect x="342.553" y="1165.75" width="2918.59" height="204.883" style="fill:rgb(201,51,56);"/>
    </g>
    <g transform="matrix(1.06716,0,0,1.04231,-151.198,-219.634)">
        <rect x="342.553" y="1165.75" width="2918.59" height="204.883" style="fill:rgb(201,51,56);"/>
    </g>
    <g transform="matrix(1.06716,0,0,1.04231,-151.198,-498.178)">
        <rect x="342.553" y="1165.75" width="2918.59" height="204.883" style="fill:rgb(201,51,56);"/>
    </g>
    <g transform="matrix(1.06716,0,0,1.04231,-151.198,-776.722)">
        <rect x="342.553" y="1165.75" width="2918.59" height="204.883" style="fill:rgb(201,51,56);"/>
    </g>
    <g transform="matrix(1.06716,0,0,1.04231,-151.198,-1055.27)">
        <rect x="342.553" y="1165.75" width="2918.59" height="204.883" style="fill:rgb(201,51,56);"/>
    </g>
</svg>
